<svg width="100" height="100" viewBox="0 0 100 100" fill="none" xmlns="http://www.w3.org/2000/svg">
<g clip-path="url(#clip0)">
<path d="M49.9902 33.3335L45.8259 25.005L49.9902 16.6765L54.1544 25.005L49.9902 33.3335Z" fill="#C88BC4"/>
<path d="M49.9902 100L45.8259 83.343L49.9902 66.686L54.1544 83.343L49.9902 100Z" fill="#C88BC4"/>
<path d="M93.2985 25.0046L80.9413 36.9551L64.4199 41.681L76.7771 29.7306L93.2985 25.0046Z" fill="#BBDEF2"/>
<path d="M23.2228 29.7306L35.58 41.681L19.0586 36.9551L6.70142 25.0046L23.2228 29.7306Z" fill="#BBDEF2"/>
<path d="M35.5607 41.6616L31.3965 33.3331L35.5607 25.0046L39.725 33.3331L35.5607 41.6616Z" fill="#BBDEF2"/>
<path d="M64.4394 25.0046L59.3067 32.7714L50.0098 33.3331L55.1424 25.5663L64.4394 25.0046Z" fill="#BBDEF2"/>
<path d="M35.5607 58.3384L30.428 66.1052L21.1311 66.6669L26.2638 58.9001L35.5607 58.3384Z" fill="#BBDEF2"/>
<path d="M49.9904 66.6665L44.8577 74.4333L35.5608 74.995L40.6935 67.2282L49.9904 66.6665Z" fill="#C88BC4"/>
<path d="M21.1311 49.9905L30.428 50.5522L35.5607 58.319L26.2638 57.7573L21.1311 49.9905Z" fill="#BBDEF2"/>
<path d="M64.4392 58.3384L73.7361 58.9001L78.8688 66.6669L69.5719 66.1052L64.4392 58.3384Z" fill="#BBDEF2"/>
<path d="M64.4392 41.6619L73.7361 42.2236L78.8688 49.9904L69.5719 49.4287L64.4392 41.6619Z" fill="#BBDEF2"/>
<path d="M64.4394 74.9954L60.2751 66.6669L64.4394 58.3384L68.6036 66.6669L64.4394 74.9954Z" fill="#C88BC4"/>
<path d="M64.4392 25.005V8.32861H49.9902V33.3335L64.4392 25.005Z" fill="#6B80D2"/>
<path d="M49.9904 8.32861H35.5608V41.6619L49.9904 33.3335V8.32861Z" fill="#C88BC4"/>
<path d="M35.5608 8.32849L49.9904 16.657L64.4393 8.32849L49.9904 0L35.5608 8.32849Z" fill="#BBDEF2"/>
<path d="M49.9902 66.6669L64.4198 58.3384V91.6717L49.9902 100V66.6669Z" fill="#6B80D2"/>
<path d="M49.9904 100L35.5608 91.6715V75.0145L49.9904 66.686V100Z" fill="#C88BC4"/>
<path d="M35.5607 58.3383L13.9066 70.831L6.68213 58.3383L21.1117 50.0098L35.5607 58.3383Z" fill="#BBDEF2"/>
<path d="M35.5606 58.3384L49.9902 66.6669L21.131 83.3239L13.9065 70.8311L35.5606 58.3384Z" fill="#6B80D2"/>
<path d="M6.70142 74.9954V58.3384L21.131 66.6669V83.3239L6.70142 74.9954Z" fill="#C88BC4"/>
<path d="M64.4394 41.662L50.0098 33.3335L78.869 16.6765L93.2985 25.005L64.4394 41.662Z" fill="#BBDEF2"/>
<path d="M93.2984 25.0046V41.6616L78.8688 49.9901L64.4392 41.6616L93.2984 25.0046Z" fill="#6B80D2"/>
<path d="M64.4392 58.3384L86.0933 70.8311L78.8688 83.3239L64.4392 74.9954V58.3384Z" fill="#C88BC4"/>
<path d="M64.4392 58.3381V41.6812L93.2984 58.3381L86.0739 70.8309L64.4392 58.3381Z" fill="#BBDEF2"/>
<path d="M93.2985 74.9954L78.8689 83.3239V66.6669L93.2985 58.3384V74.9954Z" fill="#6B80D2"/>
<path d="M35.5606 41.6616V58.3186L6.70142 41.6616V25.0046L35.5606 41.6616Z" fill="#C88BC4"/>
<path d="M6.70142 25.005L21.131 16.6765L35.5606 25.005V41.662L6.70142 25.005Z" fill="#BBDEF2"/>
</g>
<defs>
<clipPath id="clip0">
<rect width="100" height="100" fill="white"/>
</clipPath>
</defs>
</svg>
