<svg width="48" height="48" viewBox="0 0 48 48" fill="none" xmlns="http://www.w3.org/2000/svg">
<circle cx="24" cy="24" r="24" fill="white"/>
<path d="M40.7785 24.5659C40.4134 23.1771 39.6981 21.9052 38.7011 20.8717C39.1155 19.724 39.2716 18.4989 39.1582 17.2839C39.0448 16.0689 38.6647 14.8939 38.045 13.8427C37.1035 12.2642 35.6838 11.0266 33.9917 10.3091C32.2997 9.59151 30.4231 9.43133 28.6339 9.85173C27.6298 8.68232 26.3295 7.80461 24.8695 7.31061C23.4094 6.8166 21.8433 6.72451 20.3354 7.04398C18.8275 7.36345 17.4334 8.08271 16.2991 9.12636C15.1648 10.17 14.3322 11.4996 13.8885 12.9757C12.6725 13.1888 11.5174 13.6638 10.5032 14.3677C9.48909 15.0717 8.64019 15.9878 8.01539 17.0526C7.08816 18.6299 6.70157 20.467 6.91445 22.2842C7.12734 24.1015 7.92803 25.7994 9.19471 27.1197C8.78026 28.2675 8.62417 29.4925 8.73757 30.7075C8.85097 31.9225 9.23106 33.0976 9.85075 34.1488C10.7862 35.7328 12.2055 36.9748 13.8997 37.6918C15.5938 38.4089 17.4734 38.5631 19.2619 38.1319C20.2629 39.3039 21.5608 40.1849 23.0195 40.6827C24.4782 41.1805 26.044 41.2767 27.5526 40.9613C29.0613 40.6458 30.4573 39.9303 31.5943 38.8897C32.7313 37.8491 33.5674 36.5218 34.015 35.0469C35.2311 34.8339 36.3862 34.3589 37.4003 33.655C38.4145 32.951 39.2634 32.0349 39.8882 30.9701C40.4562 30.0159 40.8276 28.9578 40.9805 27.8579C41.1334 26.7581 41.0647 25.6388 40.7785 24.5659ZM34.3821 32.5868C34.3767 32.4949 34.3471 32.4061 34.2963 32.3293C34.2456 32.2525 34.1755 32.1905 34.0931 32.1494V24.191C34.1288 24.0259 34.1101 23.8538 34.0397 23.7003C33.9692 23.5468 33.851 23.4203 33.7026 23.3397L25.8926 18.927L28.712 17.3259L35.3193 21.0826C36.0584 21.4986 36.7066 22.0585 37.2257 22.7292C37.7448 23.3999 38.1243 24.1678 38.3418 24.9876C38.5602 25.7922 38.6154 26.6324 38.504 27.4586C38.3927 28.2849 38.1171 29.0805 37.6936 29.7986C36.9474 31.0846 35.7764 32.0705 34.3821 32.5868ZM13.5137 15.4047C13.519 15.4976 13.5495 15.5873 13.6017 15.6643C13.654 15.7413 13.7261 15.8027 13.8104 15.842V23.8005C13.764 23.9647 13.777 24.1401 13.847 24.2957C13.9169 24.4514 14.0395 24.5774 14.1931 24.6518L22.0032 29.0644L19.1838 30.6655L12.5452 26.9011C11.8062 26.485 11.1579 25.9251 10.6388 25.2544C10.1197 24.5837 9.74019 23.8158 9.52273 22.996C9.30433 22.1914 9.24918 21.3513 9.3605 20.525C9.47183 19.6988 9.7474 18.9032 10.171 18.185C10.9264 16.8964 12.109 15.9127 13.5137 15.4047ZM36.7173 19.3566C36.5509 19.272 36.3597 19.2498 36.1784 19.2941L29.2275 15.3422C29.0798 15.2587 28.9129 15.2148 28.7433 15.2148C28.5736 15.2148 28.4068 15.2587 28.259 15.3422L20.3396 19.8642V16.584L27.0719 12.8274C28.5631 11.9785 30.3277 11.7485 31.9866 12.1866C33.6456 12.6247 35.0665 13.696 35.9441 15.1704C36.6876 16.4366 36.9613 17.9242 36.7173 19.3722V19.3566ZM23.9479 20.0907L27.5561 22.1369V25.9092L23.9479 27.9007L20.3475 25.8545V22.1057L23.9479 20.0907ZM25.9629 11.2107L18.8948 15.1626C18.7421 15.2396 18.6189 15.3646 18.5442 15.5184C18.4694 15.6721 18.4471 15.8462 18.4809 16.0139V24.7767L15.638 23.2147V15.8733C15.6424 15.8213 15.6424 15.769 15.638 15.7171C15.6522 14.489 16.0142 13.2901 16.6819 12.2594C17.3497 11.2286 18.2959 10.4082 19.4108 9.89325C20.5258 9.37827 21.7639 9.18982 22.9816 9.34973C24.1993 9.50963 25.3467 10.0114 26.2909 10.7967C26.1368 10.8924 26.0208 11.0388 25.9629 11.2107ZM11.1785 28.6193C11.2826 28.6727 11.3973 28.7021 11.5143 28.7052C11.5817 28.714 11.65 28.714 11.7174 28.7052L18.6683 32.6571C18.8158 32.7413 18.9827 32.7856 19.1525 32.7856C19.3224 32.7856 19.4893 32.7413 19.6367 32.6571L27.5639 28.1507V31.4309L20.8239 35.1641C19.3327 36.0129 17.5681 36.243 15.9092 35.8049C14.2502 35.3668 12.8293 34.2955 11.9517 32.8211C11.2082 31.5548 10.9344 30.0672 11.1785 28.6193ZM21.9329 36.7808L29.0088 32.8367C29.1616 32.7581 29.2841 32.6313 29.3575 32.476C29.431 32.3207 29.4511 32.1455 29.4149 31.9776V23.2147L32.25 24.7767V32.1182C32.2455 32.1701 32.2455 32.2224 32.25 32.2744C32.2345 33.501 31.8722 34.6982 31.2048 35.7276C30.5375 36.7569 29.5924 37.5763 28.4788 38.091C27.3653 38.6057 26.1288 38.7947 24.9123 38.6361C23.6959 38.4775 22.5492 37.9777 21.6049 37.1947C21.759 37.099 21.8749 36.9527 21.9329 36.7808Z" fill="#3D308C"/>
</svg>
