<svg width="32" height="32" viewBox="0 0 32 32" fill="none" xmlns="http://www.w3.org/2000/svg">
<g clip-path="url(#clip0)">
<path d="M23.6144 22.7452H20.5293C20.3172 22.7452 20.1436 22.5717 20.1436 22.3596V10.7905C20.1436 10.5785 20.3172 10.4049 20.5293 10.4049H23.6144C23.8265 10.4049 24 10.5785 24 10.7905V22.3596C24 22.5717 23.8284 22.7452 23.6144 22.7452Z" fill="#7B8FDD"/>
<path d="M23.6144 22.7452H22.0718V10.4049H23.6144C23.8265 10.4049 24 10.5785 24 10.7905V22.3596C24 22.5717 23.8284 22.7452 23.6144 22.7452Z" fill="#7B8FDD"/>
<path d="M20.1456 13.4891H24.0019V11.9465H20.1456V13.4891Z" fill="black"/>
<path d="M24 19.6602H20.1436V21.2027H24V19.6602Z" fill="black"/>
<path d="M11.2663 22.7317L8.28537 21.9335C8.07905 21.8776 7.95758 21.6674 8.0135 21.4611L11.008 10.2854C11.0639 10.0791 11.274 9.95758 11.4804 10.0135L14.4594 10.8118C14.6657 10.8677 14.7872 11.0778 14.7313 11.2842L11.7387 22.4579C11.6828 22.6643 11.4707 22.7877 11.2663 22.7317Z" fill="#86BFF2"/>
<path d="M11.2663 22.7317L9.77585 22.3326L12.9689 10.4126L14.4594 10.8118C14.6657 10.8677 14.7872 11.0778 14.7313 11.2842L11.7387 22.4579C11.6828 22.6643 11.4707 22.7877 11.2663 22.7317Z" fill="#86BFF2"/>
<path d="M10.3088 12.8936L14.0336 13.8916L14.4328 12.4016L10.708 11.4036L10.3088 12.8936Z" fill="black"/>
<path d="M12.4375 19.8518L8.71268 18.8537L8.31347 20.3437L12.0383 21.3417L12.4375 19.8518Z" fill="black"/>
<path d="M18.2155 22.7452H15.1304C14.9183 22.7452 14.7448 22.5717 14.7448 22.3596V10.7905C14.7448 10.5785 14.9183 10.4049 15.1304 10.4049H18.2155C18.4276 10.4049 18.6011 10.5785 18.6011 10.7905V22.3596C18.6011 22.5717 18.4295 22.7452 18.2155 22.7452Z" fill="#C88BC4"/>
<path d="M18.2155 22.7452H16.6729V10.4049H18.2155C18.4276 10.4049 18.6011 10.5785 18.6011 10.7905V22.3596C18.6011 22.5717 18.4295 22.7452 18.2155 22.7452Z" fill="#C88BC4"/>
<path d="M14.7467 13.4891H18.603V11.9465H14.7467V13.4891Z" fill="black"/>
<path d="M18.6011 19.6602H14.7448V21.2027H18.6011V19.6602Z" fill="black"/>
</g>
<defs>
<clipPath id="clip0">
<rect width="16" height="12.7452" fill="white" transform="translate(8 10)"/>
</clipPath>
</defs>
</svg>
