<svg width="48" height="48" viewBox="0 0 48 48" fill="none" xmlns="http://www.w3.org/2000/svg">
<circle cx="24" cy="24" r="24" fill="#D71920"/>
<path fill-rule="evenodd" clip-rule="evenodd" d="M16.9454 8.40045C20.3564 8.40289 23.7675 8.40242 27.1785 8.40196C28.5432 8.40177 29.9078 8.40159 31.2724 8.40159C31.5306 8.40318 31.7882 8.40968 32.0458 8.41619C32.342 8.42367 32.6381 8.43115 32.9348 8.43115C32.0274 8.50051 31.1269 8.59148 30.2377 8.7916C26.341 9.56708 22.6899 11.0214 19.1922 12.885C16.7942 14.1972 14.4586 15.6879 12.3369 17.414C9.95244 19.2947 7.80566 21.471 6 23.9146C7.49382 21.3601 8.97025 18.7952 10.4466 16.2305L10.4466 16.2304L10.4467 16.2303C11.6404 14.1566 12.8341 12.083 14.0368 10.0151C14.3233 9.54775 14.6838 9.05313 15.1443 8.74498C15.6696 8.45844 16.3564 8.39818 16.9454 8.40045ZM32.9651 8.45625L33.0325 8.57649C33.0952 8.68839 33.1578 8.79999 33.2198 8.91221C34.5183 11.1715 35.8239 13.4315 37.1296 15.6914L37.1305 15.6929C38.3787 17.8534 39.6269 20.0139 40.8688 22.1738C41.1758 22.706 41.4817 23.3211 41.5476 23.9385C41.5727 24.523 41.2702 25.1381 41.0166 25.651C40.0761 27.284 39.1317 28.9167 38.1872 30.5497L38.1865 30.5507C37.0188 32.5696 35.8509 34.5887 34.69 36.6089C34.445 37.0142 34.2122 37.4256 33.9796 37.8368L33.9795 37.8369C33.643 38.4316 33.3068 39.0258 32.9344 39.6005C33.6246 38.1632 34.134 36.6589 34.557 35.1239C35.9499 29.9377 36.2557 24.4172 35.6997 19.0867C35.3154 15.6539 34.5513 12.154 33.1754 8.97589C33.1049 8.80305 33.0344 8.63022 32.9651 8.45625ZM12.4304 30.5231C10.0142 28.5844 7.81621 26.4422 6.01055 23.9156C7.5876 26.6801 9.18218 29.4388 10.7765 32.1969C11.718 33.8257 12.6594 35.4544 13.5971 37.084C13.9564 37.7264 14.3293 38.3746 14.8581 38.8976C15.131 39.1671 15.4925 39.2763 15.8575 39.3581C16.4031 39.4697 16.928 39.4643 17.469 39.4588C17.6338 39.4571 17.8002 39.4555 17.9691 39.457C19.3075 39.4574 20.6458 39.4572 21.9841 39.457C24.9286 39.4566 27.873 39.4561 30.8179 39.4616C30.8845 39.4621 30.9511 39.4627 31.0177 39.4633C31.5387 39.468 32.0591 39.4727 32.5804 39.4354C29.5501 39.0818 26.6244 38.2415 23.7931 37.1226C19.7156 35.4785 15.8814 33.2453 12.4304 30.5231Z" fill="white"/>
</svg>
